<svg width="11" height="11" viewBox="0 0 11 11" fill="none" xmlns="http://www.w3.org/2000/svg">
<path d="M9.73946 2.35428C9.52313 2.35428 9.31167 2.29013 9.1318 2.16995C8.95193 2.04977 8.81175 1.87895 8.72896 1.67909C8.64618 1.47923 8.62452 1.25932 8.66672 1.04715C8.70892 0.834982 8.81309 0.640095 8.96606 0.487131C9.11902 0.334167 9.31391 0.229998 9.52608 0.187795C9.73824 0.145593 9.95816 0.167252 10.158 0.250036C10.3579 0.332819 10.5287 0.473008 10.6489 0.652874C10.7691 0.83274 10.8332 1.04421 10.8332 1.26053C10.8335 1.40425 10.8054 1.54661 10.7506 1.67945C10.6957 1.81229 10.6152 1.93299 10.5135 2.03462C10.4119 2.13624 10.2912 2.21679 10.1584 2.27165C10.0255 2.32651 9.88317 2.35459 9.73946 2.35428ZM5 3.08319C5.57689 3.08319 6.14082 3.25425 6.62049 3.57475C7.10015 3.89526 7.47401 4.3508 7.69477 4.88377C7.91554 5.41675 7.9733 6.00322 7.86075 6.56902C7.74821 7.13482 7.47041 7.65455 7.06249 8.06247C6.65457 8.47039 6.13484 8.74819 5.56904 8.86073C5.00324 8.97328 4.41677 8.91552 3.88379 8.69475C3.35082 8.47399 2.89528 8.10013 2.57477 7.62047C2.25427 7.1408 2.08321 6.57687 2.08321 5.99998C2.08403 5.22665 2.3916 4.48524 2.93843 3.93841C3.48526 3.39158 4.22667 3.08401 5 3.08319ZM5 1.62498C4.13471 1.62498 3.28885 1.88157 2.56938 2.3623C1.84992 2.84303 1.28916 3.52632 0.958029 4.32574C0.626896 5.12517 0.540256 6.00484 0.709066 6.8535C0.877877 7.70217 1.29456 8.48172 1.90641 9.09357C2.51826 9.70543 3.29782 10.1221 4.14648 10.2909C4.99515 10.4597 5.87481 10.3731 6.67424 10.042C7.47367 9.71082 8.15695 9.15007 8.63768 8.4306C9.11841 7.71114 9.375 6.86527 9.375 5.99998C9.375 4.83966 8.91407 3.72686 8.09359 2.90639C7.27312 2.08592 6.16032 1.62498 5 1.62498Z" fill="#BDBDBD"/>
</svg>
