<svg width="20" height="20" viewBox="0 0 20 20" fill="none" xmlns="http://www.w3.org/2000/svg">
<g opacity="0.45">
<path d="M13.6457 2.7082C14.6118 2.71109 15.5375 3.09616 16.2207 3.77931C16.9038 4.46246 17.2889 5.38818 17.2918 6.3543V13.6457C17.2889 14.6118 16.9038 15.5375 16.2207 16.2207C15.5375 16.9038 14.6118 17.2889 13.6457 17.2918H6.3543C5.38818 17.2889 4.46246 16.9038 3.77931 16.2207C3.09616 15.5375 2.71109 14.6118 2.7082 13.6457V6.3543C2.71109 5.38818 3.09616 4.46246 3.77931 3.77931C4.46246 3.09616 5.38818 2.71109 6.3543 2.7082H13.6457ZM13.6457 1.25H6.3543C3.54688 1.25 1.25 3.54688 1.25 6.3543V13.6457C1.25 16.4531 3.54688 18.75 6.3543 18.75H13.6457C16.4531 18.75 18.75 16.4531 18.75 13.6457V6.3543C18.75 3.54688 16.4531 1.25 13.6457 1.25Z" fill="#BDBDBD"/>
<path d="M14.7395 6.35428C14.5231 6.35428 14.3117 6.29013 14.1318 6.16995C13.9519 6.04977 13.8117 5.87895 13.729 5.67909C13.6462 5.47923 13.6245 5.25932 13.6667 5.04715C13.7089 4.83498 13.8131 4.64009 13.9661 4.48713C14.119 4.33417 14.3139 4.23 14.5261 4.1878C14.7382 4.14559 14.9582 4.16725 15.158 4.25004C15.3579 4.33282 15.5287 4.47301 15.6489 4.65287C15.7691 4.83274 15.8332 5.04421 15.8332 5.26053C15.8335 5.40425 15.8054 5.54661 15.7506 5.67945C15.6957 5.81229 15.6152 5.93299 15.5135 6.03462C15.4119 6.13624 15.2912 6.21679 15.1584 6.27165C15.0255 6.32651 14.8832 6.35459 14.7395 6.35428V6.35428ZM10 7.08319C10.5769 7.08319 11.1408 7.25425 11.6205 7.57475C12.1002 7.89526 12.474 8.3508 12.6948 8.88377C12.9155 9.41675 12.9733 10.0032 12.8608 10.569C12.7482 11.1348 12.4704 11.6545 12.0625 12.0625C11.6546 12.4704 11.1348 12.7482 10.569 12.8607C10.0032 12.9733 9.41677 12.9155 8.88379 12.6948C8.35082 12.474 7.89528 12.1001 7.57477 11.6205C7.25427 11.1408 7.08321 10.5769 7.08321 9.99998C7.08403 9.22665 7.3916 8.48524 7.93843 7.93841C8.48526 7.39158 9.22667 7.08401 10 7.08319V7.08319ZM10 5.62498C9.13471 5.62498 8.28885 5.88157 7.56938 6.3623C6.84992 6.84303 6.28916 7.52632 5.95803 8.32574C5.6269 9.12517 5.54026 10.0048 5.70907 10.8535C5.87788 11.7022 6.29456 12.4817 6.90641 13.0936C7.51826 13.7054 8.29782 14.1221 9.14648 14.2909C9.99515 14.4597 10.8748 14.3731 11.6742 14.042C12.4737 13.7108 13.157 13.1501 13.6377 12.4306C14.1184 11.7111 14.375 10.8653 14.375 9.99998C14.375 8.83966 13.9141 7.72686 13.0936 6.90639C12.2731 6.08592 11.1603 5.62498 10 5.62498V5.62498Z" fill="#BDBDBD"/>
</g>
</svg>
